<svg height="511pt" viewBox="-74 1 511 511.99702" width="511pt" xmlns="http://www.w3.org/2000/svg"><path d="m361.679688 468.292969-22.847657-95.722657c-.035156-.144531-.074219-.292968-.117187-.433593-8.605469-28.363281-36.382813-58.886719-77.039063-58.886719h-30.960937v-33.484375c18.125-11.121094 32.445312-28.949219 41.832031-52.527344 1.828125 2.335938 3.84375 4.585938 6.132813 6.640625 1.386718 1.242188 3.171874 1.914063 5.007812 1.914063.382812 0 .769531-.03125 1.15625-.089844 2.222656-.347656 4.175781-1.675781 5.3125-3.617187.832031-1.417969 20.355469-35.277344 19.574219-82.460938-.453125-27.648438-5.136719-52.425781-13.917969-73.636719-9.082031-21.9375-22.328125-39.550781-39.375-52.351562-33.203125-24.933594-79.554688-30.261719-134.046875-15.410157-.128906.035157-.253906.074219-.378906.117188-.976563.320312-22.976563 7.78125-34.648438 27.9375-5.867187 1.621094-11.230469 4.238281-15.988281 7.8125-22.992188 17.273438-38.417969 43.519531-43.4375 73.902344-.675781 4.085937 2.089844 7.945312 6.179688 8.621094 4.082031.679687 7.949218-2.089844 8.621093-6.175782 4.390625-26.554687 17.757813-49.410156 37.652344-64.355468 3.894531-2.925782 8.429687-4.925782 13.480469-5.945313 2.285156-.460937 4.222656-1.957031 5.25-4.050781 7.871094-16.054688 25.726562-22.832032 27.460937-23.457032 49.75-13.507812 91.535157-9.015624 120.851563 13 14.863281 11.164063 26.480468 26.671876 34.519531 46.09375 8.058594 19.460938 12.359375 42.390626 12.78125 68.144532.472656 28.625-7.441406 52.207031-12.789063 64.777344-1.808593-2.726563-3.382812-5.570313-4.785156-8.242188v-.003906c-1.160156-2.214844-2.28125-4.46875-3.46875-6.851563-10.601562-21.308593-23.792968-47.824219-71.570312-50.402343-4.136719-.226563-7.671875 2.949218-7.894532 7.085937-.222656 4.136719 2.949219 7.671875 7.085938 7.894531 39.046875 2.105469 48.714844 21.535156 58.949219 42.101563.722656 1.457031 1.464843 2.945312 2.214843 4.425781-17.679687 58.609375-58.128906 67.453125-80.894531 67.453125-43.605469 0-74.511719-30.351563-84.800781-83.269531-.789062-4.054688-4.730469-6.703125-8.796875-5.925782-1.800781.179688-8.164063-6.9375-9.597656-20.933593-.664063-6.53125-.019531-12.9375 1.773437-17.574219 1.386719-3.578125 2.964844-4.804688 3.382813-4.847656.050781-.003906.164062.015625.339843.078125 2.203126.816406 4.664063.558593 6.640626-.703125 1.984374-1.261719 3.257812-3.378906 3.449218-5.71875.554688-6.785156 1.441406-13.421875 2.644532-19.78125 14.417968 27.3125 37.179687 41.902344 69.480468 44.558594 4.125.347656 7.75-2.734376 8.089844-6.863282.339844-4.125-2.734375-7.75-6.863281-8.089844-28.089844-2.308593-46.746094-14.734374-58.707031-39.09375-2.652344-5.398437-8.222657-8.398437-14.1875-7.648437-5.988282.753906-10.652344 5.0625-11.882813 10.96875-1.195313 5.734375-2.148437 11.691406-2.84375 17.785156-5.851563 1.5-10.601563 6.367188-13.53125 13.941407-2.660156 6.871093-3.621094 15.578124-2.707031 24.515624 1.769531 17.324219 9.789062 30.441407 19.734375 33.652344 5.804687 25.609375 16.640625 47.113282 31.515625 62.441406 5.445312 5.609376 11.4375 10.390626 17.902344 14.320313v19.355469c-53.644532-44.492188-85.730469-95.671875-90.789063-145.34375-.417969-4.121094-4.109375-7.125-8.222656-6.699219-4.121094.417969-7.121094 4.101563-6.703125 8.21875 2.78125 27.289063 12.796875 54.8125 29.765625 81.808594 16.808593 26.738281 40.113281 52.253906 69.328125 75.984375h-24.515625c-19.65625 0-36.691407 6.171875-50.632813 18.339844-11.289062 9.855468-20.378906 23.75-26.285156 40.183593-.09375.261719-.171875.527344-.238281.796875l-22.847657 95.722656c-2.527343 10.585938-.101562 21.566407 6.652344 30.125 6.816406 8.632813 17.050782 13.582032 28.082032 13.582032h34.101562c4.140625 0 7.5-3.355469 7.5-7.5 0-4.140625-3.359375-7.5-7.5-7.5h-34.101562c-6.414063 0-12.355469-2.871094-16.304688-7.875-3.894531-4.933594-5.292969-11.253906-3.839844-17.347656l22.75-95.3125c15.25-41.9375 45.785156-48.210938 62.664063-48.210938h34.800781c10.820312 13.964844 27.476562 22.203125 45.332031 22.222656h.0625c17.878907 0 34.566407-8.242187 45.394531-22.222656h34.605469c32.914063 0 55.5 24.851562 62.617188 48.027344l22.796875 95.496094c1.453125 6.09375.054687 12.414062-3.835938 17.347656-3.953125 5.003906-9.894531 7.875-16.308594 7.875h-221.628906c-4.144531 0-7.503906 3.359375-7.503906 7.5 0 4.144531 3.359375 7.5 7.503906 7.5h221.628906c11.035157 0 21.269532-4.949219 28.082032-13.582032 6.753906-8.550781 9.179687-19.535156 6.652344-30.121093zm-180.003907-132.820313h-.046875c-13.695312-.011718-25.96875-6.226562-34.011718-17.113281v-31.195313c10.496093 3.914063 21.890624 5.945313 33.960937 5.945313 12.234375 0 23.660156-2.058594 34.136719-6.003906v31.273437c-8.058594 10.890625-20.339844 17.09375-34.039063 17.09375zm0 0"/></svg>