<svg id="Capa_1" enable-background="new 0 0 512 512" height="512" viewBox="0 0 512 512" width="512" xmlns="http://www.w3.org/2000/svg"><g><path d="m256 512c-68.379 0-132.666-26.629-181.019-74.981-48.352-48.353-74.981-112.64-74.981-181.019 0-35.378 7.083-69.624 21.051-101.788 1.651-3.798 6.068-5.539 9.867-3.892 3.799 1.65 5.542 6.068 3.892 9.867-13.145 30.267-19.81 62.503-19.81 95.813 0 64.372 25.069 124.892 70.588 170.412s106.04 70.588 170.412 70.588 124.892-25.069 170.412-70.588 70.588-106.04 70.588-170.412-25.069-124.892-70.588-170.412-106.04-70.588-170.412-70.588c-41.96 0-83.274 10.946-119.476 31.655-35.123 20.092-64.883 48.952-86.062 83.458-2.167 3.53-6.784 4.635-10.315 2.469-3.53-2.167-4.635-6.785-2.469-10.315 22.492-36.645 54.097-67.293 91.398-88.632 38.466-22.004 82.355-33.635 126.924-33.635 68.379 0 132.666 26.629 181.019 74.981 48.352 48.353 74.981 112.64 74.981 181.019s-26.629 132.666-74.981 181.019c-48.353 48.352-112.64 74.981-181.019 74.981z"/><path d="m256 472c-119.103 0-216-96.897-216-216s96.897-216 216-216 216 96.897 216 216c0 17.278-2.06 34.493-6.124 51.166-.981 4.024-5.039 6.492-9.062 5.511-4.024-.98-6.492-5.038-5.511-9.062 3.78-15.512 5.697-31.532 5.697-47.615 0-110.832-90.168-201-201-201s-201 90.168-201 201 90.168 201 201 201c80.213 0 152.667-47.675 184.587-121.458 1.644-3.801 6.059-5.55 9.861-3.905 3.801 1.645 5.55 6.06 3.905 9.861-34.295 79.277-112.154 130.502-198.353 130.502z"/><g><path d="m242.84 386.44c-13.05 0-25.245-5.813-33.457-15.948l-38.4-47.39c-2.608-3.218-2.113-7.941 1.105-10.549 3.217-2.607 7.94-2.112 10.549 1.105l38.4 47.39c5.351 6.604 13.298 10.392 21.803 10.392.934 0 1.882-.048 2.817-.142 9.443-.951 17.698-6.541 22.083-14.954l91.06-174.74c7.146-13.724 1.796-30.711-11.926-37.863-6.647-3.465-14.246-4.131-21.397-1.88-7.151 2.253-12.999 7.156-16.465 13.806l-66.01 126.669c-1.167 2.241-3.386 3.744-5.9 3.997-2.518.257-4.987-.777-6.578-2.741l-41.47-51.18c-4.721-5.824-11.428-9.462-18.886-10.244-7.451-.779-14.771 1.388-20.594 6.108-5.826 4.719-9.463 11.422-10.245 18.878s1.388 14.77 6.108 20.593l15.211 18.771c2.607 3.218 2.113 7.941-1.105 10.549-3.219 2.607-7.941 2.112-10.549-1.105l-15.21-18.77c-7.243-8.936-10.572-20.159-9.373-31.601 1.199-11.441 6.782-21.729 15.72-28.969 8.935-7.243 20.157-10.571 31.601-9.373 11.441 1.199 21.731 6.781 28.976 15.718l34.275 42.3 60.728-116.533c5.318-10.203 14.289-17.725 25.26-21.181 10.973-3.458 22.635-2.433 32.837 2.885 21.053 10.974 29.261 37.035 18.296 58.094l-91.062 174.743c-6.729 12.91-19.394 21.488-33.88 22.946-1.433.146-2.887.219-4.322.219z"/></g></g></svg>