<svg id="Capa_1" enable-background="new 0 0 511.994 511.994" height="512" viewBox="0 0 511.994 511.994" width="512" xmlns="http://www.w3.org/2000/svg"><g><g><path d="m506.847 154.412-31.431-31.431c-3.322-3.322-7.741-5.151-12.443-5.151s-9.121 1.83-12.443 5.152l-173.21 173.21c-1.015 1.015-2.669 1.017-3.684 0l-11.487-11.487 38.737-38.737c2.929-2.929 2.929-7.678 0-10.606-2.931-2.93-7.679-2.928-10.607 0l-136.55 136.55c-9.678 9.677-25.425 9.678-35.103 0l-102.86-102.86c-.666-.666-.766-1.439-.766-1.841s.1-1.175.767-1.842l31.429-31.43c.66-.66 1.435-.759 1.838-.759.402 0 1.177.099 1.836.758l20.96 20.96c2.93 2.929 7.678 2.929 10.607 0s2.929-7.678 0-10.606l-20.96-20.959c-3.322-3.323-7.741-5.152-12.443-5.152s-9.121 1.83-12.444 5.152l-31.43 31.429c-3.327 3.327-5.16 7.748-5.16 12.449 0 4.7 1.832 9.121 5.159 12.448l102.86 102.86c7.764 7.763 17.961 11.645 28.158 11.645 10.198 0 20.396-3.882 28.159-11.645l41.491-41.491 41.491 41.491c7.764 7.763 17.961 11.645 28.159 11.645 10.197 0 20.395-3.882 28.158-11.645l21.62-21.62c2.929-2.929 2.929-7.678 0-10.606-2.93-2.929-7.678-2.929-10.607 0l-21.62 21.62c-4.687 4.687-10.92 7.269-17.551 7.269-6.632 0-12.865-2.582-17.552-7.269l-41.492-41.492 35.108-35.108 11.489 11.487c6.864 6.865 18.032 6.862 24.896 0l173.21-173.211c.659-.659 1.434-.758 1.836-.758.403 0 1.178.099 1.837.758l31.43 31.43c1.016 1.016 1.016 2.668 0 3.684l-156.84 156.84c-2.929 2.929-2.929 7.678 0 10.606 1.465 1.464 3.385 2.197 5.304 2.197s3.839-.732 5.304-2.197l156.84-156.84c6.863-6.864 6.863-18.033 0-24.897z"/><path d="m123.73 306.8c3.432 3.432 7.939 5.147 12.447 5.147 4.509 0 9.017-1.716 12.449-5.147l173.21-173.211c.659-.659 1.434-.758 1.836-.758s1.177.099 1.836.758l31.431 31.43c1.016 1.016 1.016 2.668 0 3.684l-41.92 41.92c-2.929 2.929-2.929 7.678 0 10.606 2.93 2.929 7.678 2.929 10.607 0l41.92-41.92c3.326-3.327 5.159-7.748 5.159-12.448s-1.833-9.121-5.159-12.448l-31.431-31.43c-3.322-3.322-7.741-5.152-12.443-5.152s-9.121 1.83-12.443 5.152l-173.209 173.21c-1.015 1.015-2.669 1.017-3.684 0l-27.16-27.16c-2.93-2.929-7.678-2.929-10.607 0s-2.929 7.678 0 10.606z"/></g></g></svg>