<?xml version="1.0" encoding="UTF-8"?>
<svg xmlns="http://www.w3.org/2000/svg" id="Icons" viewBox="0 0 60 60" width="512" height="512"><path d="M58,26H51a2,2,0,0,0-1.634.853L38.693,24.717A23,23,0,0,0,44,9.5V5.385a2.007,2.007,0,0,0-1.588-1.946,2.688,2.688,0,0,1-1.311-.7,2.466,2.466,0,0,1-.675-1.188A2.026,2.026,0,0,0,38.439,0H21.561a2.027,2.027,0,0,0-1.988,1.55A2.46,2.46,0,0,1,18.9,2.737a2.683,2.683,0,0,1-1.3.7A2.009,2.009,0,0,0,16,5.385V9.5a22.846,22.846,0,0,0,7.144,17.168l-12.5,2.2A2,2,0,0,0,9,28H2a2,2,0,0,0-2,2V45a2,2,0,0,0,2,2H9a1.99,1.99,0,0,0,1.521-.716l1.75.7L11.136,50A3.487,3.487,0,0,0,13.175,54.5a3.5,3.5,0,0,0,2.707-.113c.005.012.007.025.013.037A3.5,3.5,0,0,0,19.08,56.48a3.511,3.511,0,0,0,1.481-.331c0,.012.007.024.012.036a3.5,3.5,0,0,0,3.186,2.055,3.514,3.514,0,0,0,1.481-.331c.005.011.007.024.012.035a3.5,3.5,0,0,0,6.464-.206l.06-.159,3.4,1.661a3.453,3.453,0,0,0,1.51.349,3.5,3.5,0,0,0,1.156-.2,3.464,3.464,0,0,0,2-1.8,3.617,3.617,0,0,0,.331-1.5,3.529,3.529,0,0,0-.209-1.205,3.5,3.5,0,0,0,2.147-4.511,3.489,3.489,0,0,0,2.033-1.82,3.641,3.641,0,0,0,.329-1.494,3.48,3.48,0,0,0-.213-1.2,3.489,3.489,0,0,0,1.427-.95l3.686-.76A2,2,0,0,0,51,45h7a2,2,0,0,0,2-2V28A2,2,0,0,0,58,26ZM9,45H2V30H9ZM18,9.5l.023-4.109A4.687,4.687,0,0,0,20.3,4.163,4.876,4.876,0,0,0,21.561,2l16.918.01A4.472,4.472,0,0,0,39.7,4.162,4.6,4.6,0,0,0,42,5.385V9.5A20.969,20.969,0,0,1,29.97,28.99,21.046,21.046,0,0,1,18,9.5ZM13.875,52.628a1.492,1.492,0,0,1-.837-.786,1.471,1.471,0,0,1-.032-1.139l1.412-3.745a1.457,1.457,0,0,1,.771-.822A1.5,1.5,0,0,1,15.811,46a1.543,1.543,0,0,1,.543.1,1.491,1.491,0,0,1,.966,1.4,1.435,1.435,0,0,1-.088.489l-.918,2.43-.51,1.34A1.508,1.508,0,0,1,13.875,52.628Zm4.679,1.756a1.494,1.494,0,0,1-.874-1.924l.565-1.5.85-2.232c.008-.02.01-.042.017-.063l.331-.876a1.5,1.5,0,0,1,1.935-.871,1.492,1.492,0,0,1,.873,1.924l-1.764,4.668A1.5,1.5,0,0,1,18.554,54.384Zm4.678,1.76a1.5,1.5,0,0,1-.874-1.925l1.764-4.667a1.5,1.5,0,0,1,1.405-.969,1.521,1.521,0,0,1,.53.1A1.492,1.492,0,0,1,26.93,50.6l-1.764,4.668A1.5,1.5,0,0,1,23.232,56.144ZM27.911,57.9a1.494,1.494,0,0,1-.874-1.924l1.059-2.8a1.5,1.5,0,0,1,2.77-.087,1.474,1.474,0,0,1,.037,1.14l-1.058,2.8A1.5,1.5,0,0,1,27.911,57.9ZM44.474,43.2a1.512,1.512,0,0,1-1.975.709L42.48,43.9l-2.7-1.29a1,1,0,1,0-.861,1.8L41.611,45.7h0l.018.009a1.508,1.508,0,0,1,.84,1.352,1.594,1.594,0,0,1-.142.648,1.5,1.5,0,0,1-1.987.711l-.006,0-2.9-1.389a1,1,0,0,0-.864,1.8l2.891,1.382s.009.008.015.011a1.5,1.5,0,0,1,.7,2,1.525,1.525,0,0,1-2.011.7l-2.734-1.313a1,1,0,0,0-.866,1.8l2.75,1.32h0a1.49,1.49,0,0,1,.851,1.358,1.583,1.583,0,0,1-.144.65,1.48,1.48,0,0,1-1.977.7L32.486,55.7l.288-.763a3.469,3.469,0,0,0-3.767-4.675,3.447,3.447,0,0,0-2.247-3.455,3.493,3.493,0,0,0-2.711.109c0-.012-.007-.025-.012-.037a3.488,3.488,0,0,0-5.312-1.324,3.485,3.485,0,0,0-5.537-.361L11,44.323V30.839l14.12-2.488c.29.221.57.422.844.613l-5.956,6.675A3.917,3.917,0,0,0,18.97,38.32a3.978,3.978,0,0,0,6.645,2.957l5.943-5.6a1,1,0,0,1,1.143-.162l11.067,5.676A1.508,1.508,0,0,1,44.474,43.2ZM33.613,33.735a3.006,3.006,0,0,0-3.426.486L24.265,39.8a1.978,1.978,0,0,1-3.3-1.483,1.937,1.937,0,0,1,.516-1.334l6.19-6.937c.627.359,1.134.609,1.451.755A2.053,2.053,0,0,0,30,31a2.017,2.017,0,0,0,.861-.192,23.2,23.2,0,0,0,6.235-4.37L49,28.82V42.185l-2.383.491A3.493,3.493,0,0,0,44.656,39.4ZM58,43H51V28h7Z"/><path d="M28,21a1,1,0,0,0,.707-.293l10-10a1,1,0,0,0-1.414-1.414L28,18.586l-3.293-3.293a1,1,0,0,0-1.414,1.414l4,4A1,1,0,0,0,28,21Z"/></svg>
