<svg id="Capa_1" enable-background="new 0 0 512 512" height="512" viewBox="0 0 512 512" width="512" xmlns="http://www.w3.org/2000/svg"><g><path d="m391.495 366.65c-15.04 0-27.276 12.194-27.276 27.183v10.786c0 29.233-23.913 53.016-53.306 53.016h-164.689c-29.393 0-53.306-23.782-53.306-53.016v-297.239c0-29.232 23.912-53.015 53.304-53.015h164.693c29.392 0 53.304 23.782 53.304 53.015v12.609c0 14.988 12.236 27.183 27.276 27.183 15.041 0 27.277-12.194 27.277-27.183v-12.609c.001-59.209-48.384-107.38-107.857-107.38h-164.691c-59.474 0-107.86 48.171-107.86 107.381v17.316c0 4.143 3.357 7.5 7.5 7.5s7.5-3.357 7.5-7.5v-17.316c0-50.939 41.657-92.381 92.86-92.381h164.691c51.202 0 92.857 41.441 92.857 92.38v12.609c0 6.718-5.508 12.183-12.277 12.183s-12.276-5.465-12.276-12.183v-12.609c0-37.503-30.641-68.015-68.304-68.015h-164.693c-37.663 0-68.304 30.512-68.304 68.015v297.239c0 37.504 30.642 68.016 68.306 68.016h164.689c37.664 0 68.306-30.512 68.306-68.016v-10.786c0-6.718 5.507-12.183 12.276-12.183s12.277 5.465 12.277 12.183v10.787c0 50.938-41.655 92.38-92.857 92.38h-164.691c-51.203 0-92.859-41.442-92.859-92.381v-249.981c0-4.143-3.357-7.5-7.5-7.5s-7.5 3.357-7.5 7.5v249.981c-.001 59.21 48.385 107.381 107.859 107.381h164.691c59.473 0 107.857-48.171 107.857-107.38v-10.787c.001-14.988-12.236-27.183-27.277-27.183z"/><path d="m464.574 233.766-53.854-53.599c-10.628-10.579-27.921-10.58-38.551 0-10.439 10.39-10.462 28.053 0 38.468l10.232 10.183h-192.943c-15.041 0-27.277 12.194-27.277 27.183s12.236 27.183 27.277 27.183h84.092c4.143 0 7.5-3.357 7.5-7.5s-3.357-7.5-7.5-7.5h-84.092c-6.77 0-12.277-5.465-12.277-12.183s5.508-12.183 12.277-12.183h211.111c6.559 0 9.939-8.189 5.291-12.816l-23.109-22.998c-4.716-4.694-4.717-12.51-.001-17.204 4.795-4.771 12.595-4.771 17.388-.001l53.854 53.599c6.361 6.331 6.361 16.876 0 23.207l-53.854 53.598c-4.793 4.77-12.593 4.772-17.388.001-4.716-4.694-4.717-12.511 0-17.204l23.109-22.999c4.648-4.627 1.268-12.816-5.291-12.816h-97.161c-4.143 0-7.5 3.357-7.5 7.5s3.357 7.5 7.5 7.5h78.993l-10.232 10.184c-10.439 10.39-10.462 28.054.001 38.468 5.314 5.288 12.294 7.933 19.274 7.932 6.98 0 13.961-2.644 19.275-7.932l53.854-53.6c12.07-12.015 12.098-32.431.002-44.471z"/></g></svg>